<?xml version="1.0" encoding="utf-8"?>
<!-- Generator: Adobe Illustrator 23.0.6, SVG Export Plug-In . SVG Version: 6.00 Build 0)  -->
<svg version="1.1" id="Capa_1" xmlns="http://www.w3.org/2000/svg" xmlns:xlink="http://www.w3.org/1999/xlink" x="0px" y="0px"
	 viewBox="0 0 300 123" style="enable-background:new 0 0 300 123;" xml:space="preserve">
<style type="text/css">
	.st0{fill:#373636;}
	.st1{fill:#DFDF00;}
	.st2{fill:#FFAB03;}
</style>
<g>
	<g>
		<g>
			<path class="st0" d="M71.9,47.8c0,0-3.8-5.1-10.2-5.1c-5.1,0-7.7,2.5-7.7,5.1c0,8.9,28.7,4.5,28.7,25.5
				c0,10.8-8.9,19.8-24.9,19.8c-17.9,0-25.5-11.5-25.5-11.5l9.6-9.6c0,0,5.1,7,13.4,7c5.7,0,8.3-2.6,8.3-5.7
				c0-9.6-28.7-4.8-28.7-25.5c0-9.6,10.2-19.8,24.2-19.8c14.7,0,21.7,9.6,21.7,9.6L71.9,47.8z"/>
			<path class="st0" d="M105.1,60.6c0,10.2,7,17.2,15.3,17.2s15.3-7,15.3-17.2s-7-17.2-15.3-17.2S105.1,50.4,105.1,60.6 M105.1,84.2
				v34.4H87.9V29.3h17.2V37c0,0,6.4-8.9,18.5-8.9c15.9,0,30,14,30,32.5s-14,32.5-30,32.5C111.5,93.1,105.1,84.2,105.1,84.2"/>
			<path class="st0" d="M198.8,45.9c0,0-1.9-0.6-5.7-0.6c-8.9,0-14.7,5.7-14.7,16.6v30h-17.2V29.3h17.2V37c0,0,6.4-8.3,17.9-8.3h2.6
				v17.2H198.8z"/>
			<path class="st0" d="M235.2,77.2c8.3,0,15.3-7,15.3-16.6s-7-16.6-15.3-16.6s-15.3,7-15.3,16.6C219.9,70.1,226.9,77.2,235.2,77.2
				 M235.2,93.1c-17.9,0-33.2-15.3-33.2-32.5s15.3-32.5,33.2-32.5s33.2,15.3,33.2,32.5C268.3,77.8,253,93.1,235.2,93.1"/>
		</g>
		<polygon class="st1" points="268,106.3 284.2,106.3 284.2,15.3 268,15.3 268,4.4 297.6,4.4 297.6,117.2 268,117.2 		"/>
		<polygon class="st2" points="32,15.3 15.8,15.3 15.8,106.3 32,106.3 32,117.2 2.4,117.2 2.4,4.4 32,4.4 		"/>
	</g>
</g>
</svg>
